<svg xmlns="http://www.w3.org/2000/svg" version="1.1" xmlns:xlink="http://www.w3.org/1999/xlink" width="1000" height="1000"><g clip-path="url(#SvgjsClipPath1086)"><rect width="1000" height="1000" fill="#ffffff"></rect><g transform="matrix(0.5555555555555556,0,0,0.5555555555555556,200,200)"><svg xmlns="http://www.w3.org/2000/svg" version="1.1" xmlns:xlink="http://www.w3.org/1999/xlink" width="1080.000000pt" height="1080.000000pt"><svg version="1.0" xmlns="http://www.w3.org/2000/svg" width="1080.000000pt" height="1080.000000pt" viewBox="0 0 1080.000000 1080.000000" preserveAspectRatio="xMidYMid meet">
<metadata>
Created by potrace 1.16, written by Peter Selinger 2001-2019
</metadata>
<g transform="translate(0.000000,1080.000000) scale(0.100000,-0.100000)" fill="#000000" stroke="none">
<path d="M9633 10427 c-11 -7 -79 -83 -150 -170 -70 -87 -156 -193 -191 -235
-35 -42 -90 -111 -122 -152 -32 -41 -73 -91 -91 -110 -19 -19 -44 -51 -57 -70
-14 -19 -31 -42 -38 -50 -8 -8 -37 -44 -66 -80 -29 -36 -72 -88 -97 -115 -26
-28 -56 -64 -68 -80 -27 -35 -77 -96 -206 -250 -51 -61 -108 -131 -127 -155
-71 -88 -202 -247 -249 -300 -26 -30 -87 -104 -136 -165 -48 -60 -93 -114 -99
-120 -7 -5 -68 -80 -136 -165 -68 -85 -131 -162 -140 -170 -9 -8 -32 -35 -51
-60 -19 -25 -44 -56 -56 -70 -12 -14 -36 -44 -55 -66 -18 -23 -73 -88 -123
-144 -147 -168 -215 -254 -221 -277 -4 -15 4 -42 22 -75 15 -29 39 -73 51 -98
26 -50 39 -73 64 -111 9 -14 30 -50 45 -80 15 -30 42 -76 60 -104 17 -27 57
-96 88 -152 66 -119 66 -133 2 -193 -40 -38 -61 -54 -181 -134 -33 -22 -87
-60 -121 -85 -33 -25 -78 -58 -100 -74 -21 -15 -69 -50 -107 -77 -37 -27 -109
-78 -160 -112 -50 -35 -124 -88 -163 -118 -40 -30 -106 -80 -149 -110 -42 -30
-113 -95 -158 -145 -45 -49 -100 -108 -122 -130 -22 -22 -60 -63 -84 -90 -24
-28 -101 -111 -172 -186 -71 -75 -139 -149 -151 -165 -21 -28 -82 -95 -240
-262 -70 -74 -82 -82 -115 -82 -32 0 -43 7 -82 52 -132 148 -272 303 -349 383
-48 50 -105 110 -126 135 -22 25 -87 95 -144 155 -58 61 -133 143 -166 183
-34 42 -93 97 -136 127 -41 30 -100 72 -130 94 -56 41 -164 118 -235 169 -89
63 -136 97 -260 188 -71 52 -146 106 -165 120 -241 171 -259 188 -260 244 0
20 11 56 24 80 14 25 32 61 41 80 9 19 23 42 30 50 8 8 37 60 65 115 29 55 67
123 85 150 56 86 114 189 125 222 15 41 9 51 -93 166 -45 51 -100 115 -122
142 -21 28 -64 77 -95 110 -30 34 -81 95 -112 135 -31 41 -71 90 -88 109 -28
30 -176 210 -265 321 -32 40 -119 146 -248 301 -43 52 -124 150 -180 218 -56
68 -116 140 -133 160 -17 20 -72 88 -123 151 -51 63 -110 135 -132 160 -22 25
-110 131 -197 235 -86 105 -175 212 -197 238 -22 26 -50 62 -63 80 -13 18 -39
48 -57 69 -19 20 -82 96 -140 170 -58 73 -111 140 -119 148 -97 110 -113 125
-132 122 -18 -3 -23 -16 -37 -90 -10 -48 -21 -107 -26 -132 -6 -25 -13 -88
-17 -141 -8 -109 -4 -120 63 -189 24 -25 67 -76 96 -113 28 -37 93 -117 142
-176 126 -151 189 -228 355 -432 80 -97 195 -237 255 -309 61 -73 129 -158
153 -189 23 -31 71 -87 105 -126 35 -38 96 -113 137 -165 40 -52 76 -97 80
-100 8 -6 97 -113 155 -185 22 -28 89 -108 150 -180 61 -71 124 -148 140 -170
16 -22 63 -78 105 -125 42 -47 82 -95 90 -106 8 -12 34 -46 57 -77 51 -67 60
-95 40 -133 -16 -31 -17 -32 -294 -288 -127 -117 -183 -175 -183 -190 0 -12
30 -52 71 -96 39 -41 89 -95 112 -120 22 -25 93 -99 156 -165 168 -175 290
-304 340 -361 24 -27 91 -99 150 -159 386 -400 498 -519 513 -548 9 -17 22
-54 29 -82 6 -27 24 -88 39 -135 30 -92 78 -248 105 -345 9 -33 25 -85 35
-115 10 -30 21 -71 25 -90 4 -19 23 -81 41 -138 19 -56 34 -110 34 -120 0 -9
15 -66 35 -127 19 -60 50 -162 68 -225 l34 -115 61 -50 c34 -27 100 -75 148
-105 48 -30 101 -64 118 -75 17 -11 52 -33 78 -48 26 -15 53 -33 60 -40 7 -7
69 -50 138 -96 69 -46 136 -94 151 -107 32 -30 93 -32 129 -4 14 11 28 20 33
20 4 0 78 48 165 107 86 59 175 118 197 132 97 63 322 213 342 229 26 20 68
102 78 152 15 77 157 555 180 608 8 18 17 51 21 75 3 23 21 89 39 147 33 104
64 206 105 350 57 201 60 205 321 475 74 77 166 174 203 215 38 41 81 87 97
102 15 15 72 76 125 135 53 59 115 126 138 148 32 32 155 161 311 329 6 6 54
57 108 113 65 69 97 110 97 126 0 23 -65 90 -349 357 -121 114 -139 139 -127
183 5 20 173 240 196 257 3 3 28 32 55 65 26 33 59 71 73 85 13 14 32 36 40
50 18 27 94 121 322 395 58 70 119 144 135 165 46 59 173 213 307 372 22 26
68 81 101 122 34 42 112 135 172 209 61 73 153 187 205 252 52 65 103 126 112
136 9 10 37 43 63 74 25 31 62 75 83 97 20 21 52 61 72 88 19 26 64 83 100
125 111 131 107 119 82 278 -12 74 -22 149 -22 166 0 43 -19 126 -33 144 -10
13 -16 14 -34 4z"></path>
<path d="M1173 9778 c-17 -21 -31 -79 -37 -153 -4 -38 -11 -104 -18 -146 -14
-97 -7 -122 50 -179 26 -26 64 -66 84 -90 47 -52 333 -355 408 -430 30 -30 62
-65 70 -76 20 -28 252 -276 355 -379 44 -44 100 -105 125 -135 25 -30 70 -80
100 -110 31 -30 93 -95 139 -145 46 -49 138 -146 205 -215 66 -69 187 -196
269 -282 81 -86 157 -160 168 -163 24 -8 69 28 69 54 0 9 -48 75 -106 146 -58
72 -120 150 -137 174 -18 25 -40 53 -50 63 -20 21 -225 272 -296 362 -25 33
-80 101 -121 151 -41 51 -104 129 -140 174 -36 45 -85 105 -110 134 -25 29
-79 97 -120 151 -41 55 -82 106 -90 116 -51 56 -220 263 -260 320 -14 19 -33
43 -42 52 -16 16 -218 264 -278 341 -114 147 -201 255 -213 265 -11 10 -17 10
-24 0z"></path>
<path d="M9658 9683 c-40 -47 -91 -109 -112 -137 -22 -28 -44 -56 -50 -62 -6
-6 -20 -23 -31 -39 -11 -15 -42 -55 -70 -87 -27 -33 -59 -72 -70 -86 -29 -39
-166 -214 -181 -232 -7 -8 -35 -40 -61 -71 -58 -66 -80 -94 -220 -269 -59 -75
-123 -154 -140 -175 -18 -22 -103 -128 -188 -235 -86 -107 -169 -211 -185
-230 -15 -19 -68 -84 -116 -145 -49 -60 -102 -125 -118 -143 -16 -18 -37 -43
-45 -56 -25 -37 -69 -93 -151 -190 -97 -116 -140 -177 -140 -198 0 -20 37 -48
63 -48 19 0 91 67 178 165 66 75 342 367 429 455 36 36 124 128 195 205 208
223 332 355 531 565 107 112 201 213 257 277 25 29 95 103 155 165 207 212
230 239 237 275 7 37 -2 118 -16 145 -5 9 -14 63 -20 120 -16 149 -29 152
-131 31z"></path>
<path d="M1093 9177 c-15 -19 -31 -85 -43 -177 -6 -47 -18 -110 -26 -141 -17
-69 -18 -170 -2 -201 6 -13 64 -72 127 -133 115 -109 740 -718 1061 -1032 424
-417 536 -523 552 -523 39 0 168 118 168 153 0 16 -43 76 -91 128 -131 138
-300 325 -342 378 -27 33 -151 174 -307 346 -36 39 -110 122 -165 185 -55 63
-129 145 -165 184 -36 39 -83 94 -105 121 -22 28 -84 97 -138 154 -54 57 -110
120 -125 140 -15 20 -76 90 -136 155 -59 66 -132 148 -161 184 -65 78 -89 97
-102 79z"></path>
<path d="M9789 9153 c-18 -21 -72 -81 -120 -133 -48 -52 -102 -114 -121 -136
-50 -62 -177 -204 -218 -244 -20 -19 -44 -47 -53 -61 -9 -15 -65 -80 -124
-144 -59 -65 -141 -157 -182 -204 -40 -47 -106 -121 -145 -163 -39 -42 -107
-118 -151 -168 -44 -50 -98 -111 -120 -135 -22 -24 -54 -63 -72 -87 -18 -23
-69 -81 -114 -128 -45 -47 -105 -114 -134 -150 -29 -36 -69 -81 -90 -100 -45
-43 -129 -148 -138 -173 -5 -13 2 -28 20 -48 46 -49 108 -97 135 -104 28 -7
45 8 381 340 78 77 230 225 337 329 107 105 330 323 496 485 165 163 353 346
417 406 64 61 121 123 127 138 10 31 0 128 -42 385 -25 150 -33 159 -89 95z"></path>
<path d="M961 8423 c-11 -46 -21 -105 -21 -131 0 -56 -23 -218 -45 -320 -8
-40 -15 -97 -15 -126 0 -62 14 -78 155 -177 133 -93 260 -189 263 -200 2 -5 8
-9 14 -9 5 0 22 -9 36 -20 15 -12 64 -49 108 -83 45 -34 107 -80 139 -102 31
-22 90 -66 130 -97 40 -32 77 -58 83 -58 5 0 20 -11 33 -23 13 -13 49 -41 79
-62 30 -21 69 -49 85 -62 55 -45 246 -187 339 -253 84 -60 157 -115 196 -148
27 -23 343 -256 525 -387 150 -108 227 -166 257 -194 33 -31 67 -46 89 -39 10
3 -99 131 -207 244 -22 22 -97 103 -169 180 -71 76 -155 164 -185 195 -30 31
-84 88 -119 125 -36 38 -117 123 -180 189 -194 203 -430 452 -504 533 -102
113 -301 324 -387 411 -42 42 -113 119 -160 171 -46 52 -89 98 -96 103 -7 4
-83 85 -170 180 -182 198 -201 218 -230 233 -20 11 -22 8 -43 -73z"></path>
<path d="M9923 8496 c-7 -6 -18 -16 -25 -22 -12 -10 -96 -100 -302 -323 -119
-129 -410 -435 -501 -526 -44 -45 -98 -101 -119 -125 -21 -25 -73 -81 -115
-125 -118 -126 -496 -528 -531 -566 -14 -15 -72 -76 -289 -304 -47 -50 -144
-153 -216 -230 -71 -77 -153 -164 -182 -195 -28 -30 -61 -66 -72 -80 -11 -14
-30 -35 -42 -46 -13 -13 -17 -24 -11 -28 11 -7 62 13 62 24 0 4 12 12 26 19
14 6 42 25 62 41 88 71 124 98 196 150 43 30 113 82 156 115 44 33 129 96 190
140 109 79 214 157 320 236 30 22 81 59 112 82 31 23 114 86 185 139 70 54
178 134 238 178 61 44 146 107 190 140 97 73 295 219 325 240 12 8 50 36 84
62 33 26 120 91 192 145 197 148 194 145 194 194 0 56 -18 207 -35 299 -8 41
-22 125 -30 185 -17 120 -31 182 -43 189 -4 2 -12 -1 -19 -8z"></path>
<path d="M1050 7490 c0 -21 124 -267 206 -411 24 -42 44 -79 44 -82 0 -3 18
-36 40 -74 43 -74 53 -83 290 -243 179 -120 497 -336 717 -487 98 -67 257
-175 353 -239 96 -65 193 -132 215 -148 21 -17 60 -44 86 -61 26 -16 114 -75
194 -130 81 -55 175 -118 209 -140 55 -36 121 -81 391 -267 44 -30 123 -81
175 -113 52 -32 98 -63 102 -69 12 -18 21 23 14 70 -3 24 -13 58 -21 74 -14
26 -96 98 -190 165 -16 11 -94 72 -174 135 -80 64 -162 126 -181 140 -19 13
-60 44 -92 69 -101 82 -161 129 -288 223 -69 52 -134 101 -145 110 -44 38
-204 163 -263 207 -35 25 -134 102 -220 171 -86 69 -169 133 -184 143 -15 9
-50 36 -77 60 -26 23 -95 77 -152 119 -149 110 -210 155 -244 183 -16 13 -68
53 -115 89 -47 36 -115 88 -153 117 -37 28 -92 73 -122 98 -30 25 -83 67 -117
93 -90 68 -134 101 -213 163 -38 30 -73 55 -77 55 -5 0 -8 -9 -8 -20z"></path>
<path d="M9840 7492 c-14 -9 -29 -22 -35 -29 -12 -13 -144 -117 -195 -153 -38
-27 -219 -169 -285 -223 -22 -18 -71 -55 -108 -83 -103 -75 -129 -95 -194
-149 -81 -67 -127 -102 -193 -149 -30 -21 -91 -69 -135 -106 -44 -36 -109 -88
-145 -114 -95 -68 -115 -83 -220 -167 -52 -41 -129 -101 -170 -131 -41 -31
-147 -114 -235 -183 -88 -70 -189 -148 -225 -173 -36 -26 -108 -81 -160 -122
-52 -42 -120 -95 -150 -117 -30 -23 -77 -60 -105 -82 -27 -22 -119 -92 -203
-156 -85 -65 -165 -130 -180 -146 -33 -37 -53 -90 -59 -154 -5 -49 -5 -50 14
-32 11 9 23 17 26 17 7 0 109 67 181 118 21 15 53 36 71 47 19 11 59 38 90 60
31 22 87 60 125 85 158 103 278 187 329 227 29 24 81 59 115 79 33 19 108 68
166 109 93 66 350 241 675 460 61 41 133 90 160 110 28 20 86 60 130 89 75 48
276 185 510 346 55 38 110 81 123 97 24 30 24 31 109 193 30 58 67 128 82 155
151 277 169 330 91 277z"></path>
<path d="M5465 7180 c-66 -4 -131 -12 -145 -18 -14 -5 -43 -29 -64 -53 -22
-24 -62 -69 -90 -99 -80 -86 -120 -154 -176 -300 -29 -74 -57 -146 -63 -160
-12 -29 -33 -84 -74 -195 -17 -44 -39 -100 -50 -125 -53 -115 -93 -230 -93
-268 0 -31 8 -52 36 -89 20 -26 42 -52 48 -58 12 -9 121 -137 209 -244 21 -25
74 -84 117 -132 110 -120 249 -289 263 -319 17 -36 48 -59 79 -60 19 0 36 12
66 48 22 26 56 65 77 87 20 22 69 78 108 125 40 47 85 99 102 115 17 17 46 50
65 75 19 25 57 70 84 100 91 100 210 241 228 271 25 41 23 60 -14 121 -152
257 -232 442 -254 590 -13 88 -13 105 0 151 16 56 49 93 106 122 48 25 184 54
250 55 72 0 88 10 67 41 -23 31 -200 162 -267 196 -55 28 -55 28 -275 29 -121
1 -274 -2 -340 -6z"></path>
<path d="M1534 6593 c-15 -5 2 -54 42 -118 17 -28 43 -75 58 -105 40 -78 126
-243 171 -325 21 -38 53 -101 73 -139 61 -119 93 -143 387 -282 33 -15 83 -41
110 -58 28 -16 127 -67 220 -113 193 -95 197 -97 312 -159 46 -25 175 -92 286
-148 245 -125 377 -194 397 -206 8 -5 62 -32 120 -59 58 -28 184 -91 280 -141
158 -81 210 -102 210 -84 0 4 -9 23 -21 43 -21 36 -39 52 -174 146 -72 50
-129 91 -420 302 -85 62 -185 133 -222 158 -37 25 -88 61 -113 80 -62 47 -223
160 -295 209 -33 22 -103 71 -155 110 -138 101 -362 263 -475 342 -27 19 -89
63 -137 97 -48 34 -147 104 -220 156 -73 52 -153 111 -178 131 -42 35 -158
115 -218 151 -15 9 -32 15 -38 12z"></path>
<path d="M9338 6567 c-14 -12 -49 -38 -78 -57 -28 -19 -79 -55 -113 -80 -34
-26 -76 -55 -93 -65 -17 -11 -83 -59 -145 -106 -63 -47 -156 -114 -207 -150
-52 -35 -127 -87 -168 -115 -40 -28 -100 -71 -131 -96 -32 -25 -68 -50 -79
-56 -12 -6 -77 -53 -145 -104 -68 -51 -162 -118 -209 -150 -47 -32 -105 -72
-130 -90 -25 -18 -85 -62 -135 -98 -49 -37 -166 -120 -260 -185 -93 -66 -197
-140 -230 -166 -33 -25 -96 -70 -140 -98 -44 -29 -111 -76 -148 -104 -167
-127 -172 -132 -175 -165 -2 -19 1 -32 8 -32 6 0 75 33 153 74 78 40 203 104
277 141 151 74 210 105 320 162 131 69 467 242 715 368 355 180 664 340 712
367 56 32 66 47 166 240 47 92 107 202 132 245 57 97 55 94 96 176 19 37 42
82 51 100 34 65 10 89 -44 44z"></path>
<path d="M2060 5575 c0 -9 21 -55 47 -103 26 -48 72 -134 103 -191 30 -57 62
-108 70 -113 8 -4 40 -19 70 -33 30 -14 62 -29 70 -34 8 -5 44 -21 80 -37 36
-15 128 -58 205 -96 77 -38 172 -83 210 -99 39 -17 102 -46 140 -64 39 -19
104 -49 145 -68 41 -19 127 -59 190 -89 63 -30 140 -67 170 -81 30 -14 104
-48 164 -76 59 -28 110 -51 112 -51 2 0 77 -36 166 -79 183 -89 251 -119 291
-131 24 -8 27 -6 27 13 0 12 -8 49 -18 81 -17 58 -18 59 -91 98 -41 21 -112
60 -160 87 -47 27 -117 66 -156 86 -190 102 -295 160 -356 196 -37 21 -71 39
-75 39 -4 0 -43 22 -88 49 -45 27 -124 71 -176 98 -125 66 -253 137 -315 175
-27 17 -115 65 -195 106 -80 40 -165 86 -190 102 -130 80 -409 230 -430 230
-5 0 -10 -7 -10 -15z"></path>
<path d="M8750 5536 c-52 -29 -135 -74 -185 -100 -49 -27 -115 -63 -145 -81
-30 -18 -109 -61 -175 -95 -66 -35 -136 -73 -155 -86 -19 -13 -39 -24 -44 -24
-5 0 -17 -6 -25 -14 -18 -16 -80 -50 -276 -151 -71 -37 -143 -77 -160 -89 -16
-13 -43 -29 -60 -38 -52 -27 -197 -103 -290 -153 -94 -51 -113 -62 -241 -135
-107 -61 -166 -93 -251 -135 -40 -20 -81 -47 -91 -60 -25 -32 -37 -114 -19
-132 15 -16 85 12 287 111 121 61 139 69 235 112 33 15 90 41 127 59 36 18 77
36 89 40 22 7 105 46 399 187 251 121 287 138 293 138 3 0 76 34 162 75 86 41
159 75 163 75 4 0 67 30 139 66 123 62 135 70 168 120 20 30 42 68 50 86 7 18
36 74 63 124 50 91 67 145 47 150 -5 1 -53 -21 -105 -50z"></path>
<path d="M2380 4979 c0 -23 113 -235 138 -260 26 -25 76 -49 247 -119 44 -18
148 -62 230 -97 83 -35 173 -73 200 -84 28 -12 68 -29 90 -40 53 -24 141 -62
185 -79 19 -7 103 -42 185 -77 83 -35 177 -76 210 -90 33 -14 64 -29 70 -34 5
-5 16 -9 24 -9 8 0 62 -21 120 -46 58 -25 129 -55 156 -66 28 -11 66 -29 86
-39 44 -23 79 -25 79 -5 0 29 -91 86 -305 190 -121 59 -227 112 -235 117 -8 5
-53 28 -100 52 -47 24 -122 65 -167 90 -45 26 -86 47 -90 47 -9 0 -151 72
-318 160 -66 35 -136 71 -155 79 -63 29 -403 203 -480 245 -128 72 -170 88
-170 65z"></path>
<path d="M8395 4920 c-201 -107 -457 -237 -485 -245 -14 -4 -32 -13 -40 -21
-8 -7 -152 -82 -320 -167 -168 -84 -354 -180 -415 -211 -171 -90 -235 -122
-300 -150 -33 -15 -67 -31 -75 -36 -8 -5 -57 -33 -108 -62 -90 -51 -120 -78
-107 -98 8 -13 21 -13 58 4 120 53 150 66 158 66 4 0 50 20 101 44 150 71 228
106 233 106 9 0 177 67 250 100 39 17 90 39 115 50 62 25 258 109 295 125 17
7 59 25 95 40 36 15 85 36 110 47 72 32 102 45 155 66 138 57 285 126 298 140
23 27 87 121 87 128 0 4 12 32 26 61 23 50 26 84 7 83 -4 -1 -66 -32 -138 -70z"></path>
<path d="M4506 3684 c-4 -10 -26 -40 -49 -66 -23 -25 -67 -76 -97 -113 -30
-37 -75 -90 -100 -118 -25 -29 -72 -86 -105 -127 -32 -41 -89 -111 -126 -155
-37 -44 -116 -138 -175 -210 -59 -71 -119 -143 -135 -158 -15 -15 -32 -41 -37
-56 l-10 -29 101 -4 c56 -3 111 -1 123 3 21 7 97 116 219 314 37 61 91 146
120 190 29 44 64 100 79 125 15 25 47 77 71 115 25 39 52 84 60 100 24 47 58
101 82 133 22 29 23 30 4 53 -18 22 -19 22 -25 3z"></path>
<path d="M6398 3678 c-3 -15 6 -43 24 -73 15 -28 35 -63 44 -80 9 -16 31 -49
48 -72 17 -23 45 -65 61 -93 17 -28 54 -88 83 -133 29 -45 80 -127 113 -182
69 -115 63 -105 111 -178 21 -31 49 -79 63 -106 14 -28 41 -67 62 -87 34 -35
38 -36 87 -30 28 3 75 6 104 6 47 0 52 2 52 23 0 19 -94 140 -229 292 -14 17
-39 47 -55 68 -37 51 -267 327 -297 358 -13 14 -49 57 -79 97 -30 40 -74 94
-97 120 -24 26 -43 50 -43 55 0 4 -7 7 -15 7 -7 0 -18 7 -23 16 -8 14 -10 13
-14 -8z"></path>
<path d="M6160 3547 c-14 -6 -49 -30 -78 -54 -29 -23 -80 -58 -115 -79 -77
-46 -117 -82 -117 -106 0 -17 639 -663 720 -728 33 -26 55 -34 91 -31 9 0 36
21 61 46 25 25 55 45 67 45 36 0 26 46 -26 119 -102 142 -134 189 -180 261
-26 41 -73 109 -104 150 -30 41 -68 95 -82 120 -41 67 -132 200 -162 238 -29
35 -37 37 -75 19z"></path>
<path d="M4613 3404 c-54 -80 -102 -153 -108 -162 -5 -9 -33 -48 -60 -86 -28
-39 -62 -89 -76 -111 -53 -83 -100 -153 -159 -235 -91 -128 -106 -170 -61
-170 10 0 37 -20 60 -45 52 -56 94 -60 150 -18 20 15 153 145 296 288 144 143
300 298 348 344 62 59 87 90 85 103 -2 13 -44 49 -108 94 -58 41 -127 90 -155
109 -32 22 -61 35 -82 35 -30 0 -38 -9 -130 -146z"></path>
<path d="M5258 3181 c-19 -7 -54 -37 -153 -130 -38 -36 -101 -93 -139 -126
-38 -33 -92 -82 -120 -110 -28 -27 -76 -72 -106 -98 -104 -92 -245 -232 -253
-251 -10 -24 8 -80 41 -131 15 -22 27 -42 28 -43 9 -15 51 21 105 90 35 45 79
97 97 116 17 19 32 39 32 44 0 4 5 8 10 8 22 0 6 -49 -40 -125 -28 -44 -59
-100 -70 -124 -11 -24 -29 -56 -40 -71 -25 -35 -25 -68 0 -100 11 -14 20 -41
20 -61 0 -37 -3 -41 -156 -187 -7 -7 -28 -18 -46 -24 -53 -18 -86 -46 -120
-103 -18 -29 -73 -115 -123 -190 -49 -75 -152 -230 -227 -345 -85 -128 -138
-218 -138 -233 0 -21 10 -30 54 -51 30 -14 60 -26 66 -26 6 0 30 -8 53 -19 23
-10 76 -31 117 -46 41 -15 104 -39 140 -52 90 -34 108 -37 126 -22 15 12 74
129 74 146 0 11 164 387 185 425 8 14 15 31 15 37 0 9 11 34 105 236 21 44 44
98 52 120 7 22 42 104 76 183 49 112 72 153 110 193 45 47 47 48 47 23 0 -28
-48 -191 -85 -289 -13 -33 -30 -82 -39 -110 -9 -27 -21 -59 -26 -70 -5 -11
-18 -45 -28 -75 -32 -93 -92 -254 -102 -275 -6 -11 -23 -58 -40 -105 -61 -177
-98 -277 -114 -308 -9 -17 -16 -37 -16 -44 0 -7 -11 -35 -25 -63 -25 -51 -30
-82 -17 -101 11 -17 62 -41 180 -84 59 -21 161 -60 227 -85 66 -26 134 -51
150 -57 17 -5 67 -26 113 -45 101 -42 124 -41 134 7 4 19 7 244 8 500 1 601
15 1068 33 1112 15 36 42 64 50 51 24 -42 34 -315 52 -1357 3 -181 8 -333 11
-338 13 -21 19 -19 415 138 75 30 141 54 148 54 6 0 28 9 48 20 21 11 46 20
55 20 30 0 128 53 134 73 7 21 -13 113 -30 142 -7 11 -27 60 -45 110 -18 49
-36 94 -40 100 -5 5 -21 46 -36 90 -14 44 -38 109 -52 145 -46 115 -113 303
-128 357 -8 29 -28 82 -44 117 -16 36 -32 80 -36 98 -4 18 -11 38 -17 45 -9
12 -66 197 -75 246 -5 24 -2 27 21 27 14 0 26 -5 26 -11 0 -6 23 -52 50 -101
28 -49 71 -137 96 -196 25 -59 49 -116 54 -127 5 -11 23 -54 40 -95 45 -108
44 -105 98 -225 27 -60 57 -129 66 -152 8 -23 25 -59 36 -80 11 -21 20 -45 20
-53 0 -8 9 -28 20 -45 11 -16 20 -36 20 -43 0 -17 87 -217 112 -259 24 -40 33
-40 123 -7 39 14 93 33 120 43 201 73 317 126 326 148 10 26 8 30 -96 187 -38
59 -124 190 -190 292 -209 323 -241 369 -266 380 -13 7 -41 19 -61 27 -41 18
-166 132 -187 171 -12 22 -11 32 9 85 13 37 20 70 16 85 -3 14 -35 67 -71 119
-36 54 -69 115 -76 141 -6 26 -15 49 -20 52 -5 3 -9 9 -9 14 0 14 41 -2 48
-19 3 -9 26 -36 52 -61 25 -25 67 -74 94 -109 l48 -63 24 23 c13 12 24 27 24
32 0 6 11 34 25 63 15 31 22 60 18 71 -8 22 -142 153 -237 231 -38 31 -86 73
-106 92 -20 19 -86 81 -146 137 -60 56 -147 138 -194 182 -47 44 -94 81 -104
81 -11 0 -51 -20 -90 -44 -39 -25 -83 -47 -97 -51 -30 -7 -74 11 -134 54 -46
34 -63 40 -87 32z"></path>
<path d="M3574 2541 c-24 -7 -55 -43 -101 -116 -40 -63 -42 -81 -19 -133 29
-64 52 -57 101 30 45 79 110 158 130 158 20 0 47 42 35 54 -11 11 -113 16
-146 7z"></path>
<path d="M7255 2541 c-45 -7 -49 -26 -13 -51 45 -32 97 -91 129 -147 29 -51
64 -92 79 -93 13 0 40 61 40 92 0 36 -52 134 -94 176 -25 26 -76 34 -141 23z"></path>
<path d="M6943 2533 c-33 -6 -29 -39 10 -83 33 -39 99 -141 119 -185 7 -16 19
-25 34 -25 18 0 26 10 39 50 16 47 16 51 -5 92 -26 56 -64 116 -81 133 -16 15
-82 25 -116 18z"></path>
<path d="M3870 2500 c-40 -43 -90 -135 -90 -167 0 -30 39 -95 55 -90 6 2 29
32 51 68 23 35 59 86 80 113 22 27 43 54 48 61 21 28 -2 45 -60 45 -49 0 -59
-4 -84 -30z"></path>
<path d="M4138 2427 c-15 -6 -46 -41 -70 -77 -37 -57 -43 -72 -43 -122 0 -46
4 -61 24 -82 l25 -26 22 37 c13 21 27 45 31 53 20 43 76 121 95 134 12 9 33
16 46 16 52 0 88 51 45 64 -47 13 -150 15 -175 3z"></path>
<path d="M6670 2431 c-25 -3 -51 -10 -58 -15 -20 -12 13 -44 59 -56 44 -12 80
-52 138 -151 44 -78 69 -87 94 -34 9 20 17 45 17 57 0 25 -72 158 -99 182 -23
21 -84 28 -151 17z"></path>
<path d="M7586 2233 c-10 -10 -32 -52 -50 -93 -25 -59 -38 -77 -59 -85 -39
-13 -68 7 -125 90 -52 75 -89 103 -108 82 -6 -7 -27 -51 -46 -98 -25 -63 -32
-92 -26 -108 6 -18 97 -133 119 -151 3 -3 30 -34 59 -70 30 -36 61 -72 69 -81
9 -9 23 -27 31 -40 8 -12 24 -32 35 -44 11 -12 36 -41 55 -66 41 -53 211 -253
247 -291 15 -16 36 -28 48 -28 11 0 78 23 148 50 70 28 132 50 138 50 6 0 35
11 65 25 30 14 59 25 65 25 5 0 14 11 21 25 13 29 6 40 -155 225 -220 253
-345 402 -399 475 -20 28 -54 67 -75 88 -38 36 -40 37 -57 20z"></path>
<path d="M3264 2179 c-49 -60 -64 -78 -119 -140 -16 -18 -46 -54 -65 -80 -38
-50 -83 -103 -195 -233 -219 -254 -231 -270 -217 -300 6 -13 23 -27 38 -30 16
-4 47 -16 69 -26 22 -10 54 -22 70 -26 17 -4 35 -10 40 -15 28 -21 209 -80
230 -75 13 3 41 28 62 55 21 26 67 81 101 122 35 41 79 92 98 114 140 167 170
204 206 252 22 29 57 71 77 93 103 112 114 128 107 162 -8 42 -84 188 -98 188
-15 0 -66 -58 -95 -109 -36 -64 -63 -91 -88 -91 -27 0 -61 35 -76 79 -21 61
-60 121 -78 121 -9 0 -39 -27 -67 -61z"></path>
<path d="M6493 2220 c-13 -5 -23 -14 -23 -19 0 -5 -6 -16 -12 -23 -33 -36 -58
-80 -58 -103 0 -56 144 -155 177 -122 10 10 3 27 -32 87 -48 80 -53 105 -30
136 15 20 20 54 8 53 -5 0 -18 -4 -30 -9z"></path>
<path d="M4417 2198 c19 -52 8 -111 -30 -168 -20 -30 -37 -63 -37 -74 0 -34
65 -13 129 42 73 64 75 81 14 157 -52 64 -92 87 -76 43z"></path>
<path d="M4199 2100 c-18 -28 -43 -67 -55 -86 -34 -57 -63 -82 -87 -76 -34 8
-58 33 -80 82 -20 46 -44 80 -58 80 -4 0 -23 -24 -43 -52 -36 -53 -100 -145
-189 -274 -27 -38 -66 -94 -88 -124 -22 -30 -56 -80 -77 -110 -20 -30 -68 -95
-106 -144 -38 -50 -83 -111 -99 -138 -43 -69 -34 -82 89 -130 126 -50 240 -88
262 -88 27 0 77 60 187 224 33 48 67 98 75 110 8 11 30 41 50 66 32 40 115
156 204 288 l29 43 -36 37 -36 37 22 43 c12 23 46 83 75 133 29 50 52 98 50
107 -2 10 -14 18 -29 20 -20 2 -31 -6 -60 -48z"></path>
<path d="M6667 2143 c-16 -15 -5 -62 28 -118 19 -33 49 -89 67 -124 l32 -64
-37 -31 c-20 -17 -37 -35 -37 -39 0 -5 24 -39 53 -77 28 -38 62 -84 75 -102
74 -106 135 -191 306 -428 90 -126 107 -136 171 -106 18 9 40 16 49 16 30 0
241 91 258 111 21 25 16 36 -46 119 -22 30 -76 104 -118 165 -43 60 -97 136
-120 169 -98 135 -120 166 -185 266 -37 58 -72 110 -78 115 -6 6 -23 27 -39
48 -15 20 -31 37 -36 37 -12 0 -56 -77 -64 -111 -7 -33 -50 -63 -81 -55 -14 4
-46 41 -89 105 -36 54 -73 102 -82 105 -19 7 -19 7 -27 -1z"></path>
</g>
</svg></svg></g></g><defs><clipPath id="SvgjsClipPath1086"><rect width="1000" height="1000" x="0" y="0" rx="300" ry="300"></rect></clipPath></defs></svg>